<svg xmlns="http://www.w3.org/2000/svg" viewBox="0 0 215.3 229.3"><path fill="#f37f35" d="M100.7 228.8c-3-.6-6.6-1.7-7.8-2.4a36.5 36.5 0 0 1-10.2-9.3c0-.4 1.5-1.4 3.2-2.2 7.4-3 13-10.4 15.7-20.2.6-2.2 1.5-14 2-26.5 1-25.1 1.8-28.5 9.2-41.3 2.2-4 5-10.2 6.2-13.9a27 27 0 0 1 2.7-6.7c1.3 0 3 7 3 12 0 8.6-2 13.7-10.6 28.4a48 48 0 0 0-3.8 10c-3 11.5-1.4 37 2.9 45.5 2 4 9.3 12 11 12 .6 0 2 .7 3.2 1.6l2.2 1.5-2.4 2.6c-7 7.4-17 10.8-26.5 8.9zm-37.4-18c-5.6-1.7-5.5-3 .2-4.3 15.7-3.7 30.1-16.3 30.2-26.6 0-6-6.4-13.5-14.5-17.2-2.8-1.2-9-3.2-14-4.4a80.8 80.8 0 0 1-23-8.3 84 84 0 0 1-31.4-27.6c-3-4.2-9.3-17.1-8.9-18.2.2-.5 3.7 2.3 7.8 6 8 7.4 18.8 15.4 25.8 19 6.3 3.2 6.1 2.5-1-3A86.2 86.2 0 0 1 2.2 81.4a51.2 51.2 0 0 1-2.2-22C.7 40 2.2 36 3 52.3a50 50 0 0 0 3.2 19.3 56.6 56.6 0 0 0 10.9 17.9c3 3.4 4.3 3.6 2.2.4-2.1-3.3-6.1-15-7.6-22.5a69 69 0 0 1 2-29.6 73 73 0 0 1 14.8-24.5c6-6.7 8.3-7.8 5.3-2.8-1.7 2.7-4 7.4-8 15.7-3.1 6.7-3.8 23.3-1 27.6 1 1.7 1 1.4.6-2A47.9 47.9 0 0 1 29.9 28c4.3-8 13-16.6 20.8-20.5a67 67 0 0 1 23.5-7h4l-5.5 2c-22.1 7.9-32.2 21.3-32.2 42.8 0 17.3 4 27.8 14.6 37.7 7 6.5 14.5 10.6 22.8 12.4 4.6 1 7 .9 13.5-.5 6.7-1.5-2.4 6-9.6 7.8-2.7.7-7.6 1.2-10.8 1l-5.8-.4 3.7 1.4c7.2 2.7 18.2 4 22.8 2.7 2.3-.7 4.4-1 4.6-.9.3.3-2.3 2.9-5.6 5.8-9.8 8.5-12.6 17-7.8 23.8l7.9 11c6.2 8.5 9 14.5 8.8 19.4 0 1.8-.3 2.6-.6 1.7-2.2-5.7-10.3-12.1-17.8-14a4460 4460 0 0 1-24.9-6.5c-5-1.3 7.8 4.6 16.2 7.4a44.9 44.9 0 0 1 20.6 11.7c8.7 9 6.5 27.2-4.9 39-5.9 6.2-15.2 8-25 5zm66.7-.5a28 28 0 0 1-13.6-15 28 28 0 0 1-3.1-14c-.1-11.3 2.9-16.7 16.9-30.6 10.1-10 17.6-18.5 16.2-18.5-.3 0-2.3 1.8-4.4 4a67.7 67.7 0 0 1-9.8 7.6 93 93 0 0 0-11.8 9.3c-4.5 4.3-5.7 5-5.7 3.5 0-2 7.1-14.6 9.6-17.1a37.4 37.4 0 0 0 5.5-18c0-5-2.7-12.3-5.1-13.8-1-.6-4-7-4-8.6 0-.5.4-.9 1-.9.5 0 1 .6 1 1.2 0 2.5 8.3 6.8 13 6.8 4 0 13-2.1 13-3.1 0-.5-2.2-.9-4.9-.9-4.6 0-14.1-3.2-14.1-4.8 0-.4 3-1.3 6.6-2a39.9 39.9 0 0 0 16.2-6.6C174 71.8 178 65 178 45.8c.1-10.7 0-11.3-3.3-18C169 16 159.5 8.5 143.3 3.1c-8.8-3-6.2-4.4 3.4-2C164.9 6 175.3 12.6 183 24.5a36.3 36.3 0 0 1 6.2 22.8c0 4.8.3 8.5.6 8.3 1.2-.8 3-13 2.3-16.6a68.5 68.5 0 0 0-10-26.7c-3.3-5-3-5.7 1.2-2.5a84.3 84.3 0 0 1 17.1 25.9c5.2 14.2 4.7 31-1.3 46.3a57.4 57.4 0 0 0-3 8.8c.6.7 4.6-4.3 8-10.2a64 64 0 0 0 8.5-28.7l.7-9.3 1.2 6.6a79.5 79.5 0 0 1-33.8 76.7c-4.1 3-8 6-8.5 6.6a76.4 76.4 0 0 0 18-10.4c1.3 0 16.6-12.9 20.4-17.2 4-4.4 3.1.7-1.4 8.8a84.1 84.1 0 0 1-47 40.3c-3.3 1.1-10 3-15 4.1-18.8 4.4-28.8 12-28.8 21.9 0 10.3 14.7 23 30.6 26.6l5.2 1.1-2.8 1.9c-4.3 2.8-16 3.2-21.4.6zm-60.8-13.7c-5-1.2-12.5-5.1-12.5-6.6 0-.2 3-.1 6.7 0 8.3.5 16.4-2.2 20.9-6.8 2.5-2.7 2.9-3.8 2.7-8.2l-.1-5.2 2 2.5c6.9 8.7-8 27.1-19.7 24.3zm62.8-2.2a40.2 40.2 0 0 1-7-6.8c-2.3-3-2.8-4.7-2.8-9.5 0-4 .5-6.3 1.6-7.4 1.4-1.4 1.5-1 1.1 3.8-.4 5.2-.3 5.6 3.3 9a30 30 0 0 0 25.2 6.4c1.6-.4 2-.1 1.6 1-.8 2-7.7 5-13.9 5.8-4.5.6-5.3.4-9-2.3zm-32.3-38.2a45 45 0 0 0-8.9-16.5c-8.1-9.7-7.7-14 2.6-26 8.8-10.2 12.7-18.7 6-12.7-2 1.7-5.7 3.5-8.6 4.2-5.7 1.4-9 .9-5.1-.7 4-1.7 8.7-7 9.7-11.1 2-8.1-3.6-13.8-12.9-13-2.6.3-4.8.4-4.8.2 0-2.1 3.2-6 6.4-7.6 2.2-1 4.9-3.1 6-4.5 2-2.5 2.1-2.5 13-2 6 .3 12.2.1 13.6-.4 1.4-.5 4-2.6 5.7-4.6l3.3-3.8v2.9c0 3.5-4.3 9.3-7.6 10l-2.5.7 3 3.8c4.7 6 8.3 17.3 7 22.1l-.6 2.5-1.2-3a84.4 84.4 0 0 0-9.3-17.1c-1.6-1.5-1.6-1.2.1 2.3 3.5 7.2 4.3 14 2.7 23a63.8 63.8 0 0 1-10.4 24.3 47.6 47.6 0 0 0-5.8 20.3c-.5 6.4-1.4 10.5-1.4 6.7z"/></svg>